# xmcd
#
# Track frame offsets:
#   225
#   11866
#   19729
#   29097
#   41118
#   51182
#   66504
#   77788
#   92199
#   99998
#   108038
#   120470
#   130510
#   141886
#   155274
#   161407
#   168657
#   176994
#
# Disc length: 2477 seconds
#
# Revision: 0
# Processed by: cddbd v1.5.2PL0 Copyright (c) Steve Scherf et al.
# Submitted via: uFREEDB 1.6.0
#
DISCID=f309aa12
DTITLE=Jim Reeves - I've a lot of time
DYEAR=1900
DGENRE=Country
TTITLE0=I love you more
TTITLE1=Everywhere you go
TTITLE2=The wind up doll
TTITLE3=I've lived a lot in my time
TTITLE4=Home
TTITLE5=Making believe
TTITLE6=If heartaches are the fashion
TTITLE7=The highway to nowhere
TTITLE8=The Oklahoma Hills
TTITLE9=Til the end of the world
TTITLE10=Dear hearts and gentle people
TTITLE11=Your old love letters 
TTITLE12=Just call me lonesome
TTITLE13=How's the world treating you
TTITLE14=Have I told  you  lately that I love you
TTITLE15=I'm beginning to forget you
TTITLE16=Sweet evening breeze
TTITLE17=If you were mine
EXTD=
EXTT0=
EXTT1=
EXTT2=
EXTT3=
EXTT4=
EXTT5=
EXTT6=
EXTT7=
EXTT8=
EXTT9=
EXTT10=
EXTT11=
EXTT12=
EXTT13=
EXTT14=
EXTT15=
EXTT16=
EXTT17=
PLAYORDER=
